<?xml version="1.0" encoding="UTF-8"?> <svg xmlns="http://www.w3.org/2000/svg" width="780" height="440" viewBox="0 0 780 440"><title>Twitter-Chats</title><rect width="780" height="440" fill="#3896e3"></rect><g><path d="M252.44,438.74V95.53c0-8.52,3-33.27,35.63-33.27h205.7c28.93,0,33.79,24.75,33.79,33.27V438.74" fill="#fff"></path><path d="M527.56,439.37a.63.63,0,0,1-.62-.63V95.53a37.33,37.33,0,0,0-6-19.48c-5.81-8.73-15-13.16-27.22-13.16H288.07c-8.21,0-35,2.35-35,32.64V438.74a.63.63,0,1,1-1.25,0V95.53c0-8,2.62-33.89,36.26-33.89h205.7c27.22,0,34.42,22.17,34.42,33.89V438.74A.63.63,0,0,1,527.56,439.37Z" fill="#002138"></path></g><g><polyline points="266.17 438.74 266.17 121.16 513.31 121.16 513.31 438.63" fill="#3896e3"></polyline><path d="M266.17,439.37a.63.63,0,0,1-.63-.63V121.16a.63.63,0,0,1,.63-.62H513.31a.63.63,0,0,1,.63.62V438.63a.63.63,0,1,1-1.25,0V121.79H266.79v317A.63.63,0,0,1,266.17,439.37Z" fill="#002138"></path></g><g><path d="M417.46,96.49H372a.63.63,0,0,1,0-1.25h45.46a.63.63,0,1,1,0,1.25Z" fill="#002138"></path><g><circle cx="361.93" cy="96.08" r="3.4" fill="#fff"></circle><path d="M361.93,100.11a4,4,0,1,1,4-4A4,4,0,0,1,361.93,100.11Zm0-6.8a2.78,2.78,0,1,0,2.77,2.77A2.78,2.78,0,0,0,361.93,93.31Z" fill="#002138"></path></g></g><g><path d="M452.48,63.4c0,10.79-6.4,11.77-13.12,11.77H339.24c-6.57,0-10.91-4-10.91-12.57v-.29h124Z" fill="#3896e3"></path><path d="M439.36,75.8H339.24c-7,0-11.15-4.39-11.51-12.1a.88.88,0,0,1,0-.17V62.32a.63.63,0,0,1,.18-.45.62.62,0,0,1,.44-.18h124a.62.62,0,0,1,.62.53l.17,1.08v.1C453.1,74.84,446,75.8,439.36,75.8ZM329,62.94c.11,7.49,3.75,11.61,10.28,11.61H439.36c6.57,0,12.48-.85,12.49-11.11l-.07-.5Z" fill="#002138"></path></g><path d="M418.81,369.61a.62.62,0,0,1-.62-.62v-4a.63.63,0,1,1,1.25,0v4A.63.63,0,0,1,418.81,369.61Zm0-12a.62.62,0,0,1-.62-.62v-4a.63.63,0,1,1,1.25,0v4A.63.63,0,0,1,418.81,357.61Zm0-12a.62.62,0,0,1-.62-.62v-4a.63.63,0,1,1,1.25,0v4A.63.63,0,0,1,418.81,345.61Zm0-12a.62.62,0,0,1-.62-.62v-4a.63.63,0,1,1,1.25,0v4A.63.63,0,0,1,418.81,333.61Zm0-12a.62.62,0,0,1-.62-.62v-4a.63.63,0,1,1,1.25,0v4A.63.63,0,0,1,418.81,321.61Z" fill="#002138"></path><path d="M477.79,294.67H474a.63.63,0,1,1,0-1.25h3.36a.6.6,0,0,1,.45-.19.63.63,0,0,1,.62.63v.19A.62.62,0,0,1,477.79,294.67Zm-11.81,0h-4a.63.63,0,1,1,0-1.25h4a.63.63,0,0,1,0,1.25Zm-12,0h-4a.63.63,0,1,1,0-1.25h4a.63.63,0,0,1,0,1.25Zm-12,0h-4a.63.63,0,1,1,0-1.25h4a.63.63,0,0,1,0,1.25Zm-12,0h-4a.63.63,0,1,1,0-1.25h4a.63.63,0,0,1,0,1.25Zm-12,0h-4a.63.63,0,1,1,0-1.25h4a.63.63,0,0,1,0,1.25Zm-12,0h-4a.63.63,0,1,1,0-1.25h4a.63.63,0,0,1,0,1.25Zm-12,0h-4a.63.63,0,0,1-.63-.62V291.9a.63.63,0,1,1,1.25,0v1.52H394a.63.63,0,0,1,0,1.25Zm83.81-8.19a.63.63,0,0,1-.63-.62v-4a.63.63,0,1,1,1.25,0v4A.62.62,0,0,1,477.79,286.48Zm-87.81-2a.63.63,0,0,1-.63-.62v-4a.63.63,0,1,1,1.25,0v4A.62.62,0,0,1,390,284.52Zm87.81-10a.63.63,0,0,1-.63-.62v-4a.63.63,0,1,1,1.25,0v4A.62.62,0,0,1,477.79,274.48Zm-87.81-2a.63.63,0,0,1-.63-.62v-4a.63.63,0,1,1,1.25,0v4A.62.62,0,0,1,390,272.52Zm87.81-10a.63.63,0,0,1-.63-.62v-4a.63.63,0,1,1,1.25,0v4A.62.62,0,0,1,477.79,262.48Zm-87.81-2a.63.63,0,0,1-.63-.62v-4a.63.63,0,1,1,1.25,0v4A.62.62,0,0,1,390,260.52Zm87.81-10a.63.63,0,0,1-.63-.62v-4a.63.63,0,1,1,1.25,0v4A.62.62,0,0,1,477.79,250.48Zm-87.81-2a.63.63,0,0,1-.63-.62v-4a.63.63,0,1,1,1.25,0v4A.62.62,0,0,1,390,248.52Zm87.81-10a.63.63,0,0,1-.63-.62v-4a.63.63,0,1,1,1.25,0v4A.62.62,0,0,1,477.79,238.48Zm-87.81-2a.63.63,0,0,1-.63-.62v-4a.63.63,0,1,1,1.25,0v4A.62.62,0,0,1,390,236.52Zm87.81-10a.63.63,0,0,1-.63-.62v-4a.63.63,0,1,1,1.25,0v4A.62.62,0,0,1,477.79,226.48Zm-87.81-2a.63.63,0,0,1-.63-.62v-4a.63.63,0,1,1,1.25,0v4A.62.62,0,0,1,390,224.52Zm87.81-10a.63.63,0,0,1-.63-.62v-4a.63.63,0,1,1,1.25,0v4A.62.62,0,0,1,477.79,214.48Zm-87.81-2a.63.63,0,0,1-.63-.62v-4a.63.63,0,1,1,1.25,0v4A.62.62,0,0,1,390,212.52Zm87.81-10a.63.63,0,0,1-.63-.62v-4a.63.63,0,1,1,1.25,0v4A.62.62,0,0,1,477.79,202.48Zm-87.81-2a.63.63,0,0,1-.63-.62v-4a.63.63,0,1,1,1.25,0v4A.62.62,0,0,1,390,200.52Zm82.88-5.11h-4a.63.63,0,0,1-.62-.63.62.62,0,0,1,.62-.62h4a.63.63,0,0,1,.63.62A.63.63,0,0,1,472.86,195.41Zm-12,0h-4a.63.63,0,0,1-.62-.63.62.62,0,0,1,.62-.62h4a.63.63,0,0,1,.63.62A.63.63,0,0,1,460.86,195.41Zm-12,0h-4a.63.63,0,0,1-.62-.63.62.62,0,0,1,.62-.62h4a.63.63,0,0,1,.63.62A.63.63,0,0,1,448.86,195.41Zm-12,0h-4a.63.63,0,0,1-.62-.63.62.62,0,0,1,.62-.62h4a.63.63,0,0,1,.63.62A.63.63,0,0,1,436.86,195.41Zm-12,0h-4a.63.63,0,0,1-.62-.63.62.62,0,0,1,.62-.62h4a.63.63,0,0,1,.63.62A.63.63,0,0,1,424.86,195.41Zm-12,0h-4a.63.63,0,0,1-.62-.63.62.62,0,0,1,.62-.62h4a.63.63,0,0,1,.63.62A.63.63,0,0,1,412.86,195.41Zm-12,0h-4a.63.63,0,0,1-.62-.63.62.62,0,0,1,.62-.62h4a.63.63,0,0,1,.63.62A.63.63,0,0,1,400.86,195.41Z" fill="#002138"></path><path d="M302.69,348.34a.63.63,0,0,1-.62-.63v-4a.63.63,0,0,1,1.25,0v4A.63.63,0,0,1,302.69,348.34Zm0-12a.63.63,0,0,1-.62-.63v-4a.63.63,0,0,1,1.25,0v4A.63.63,0,0,1,302.69,336.34Zm0-12a.63.63,0,0,1-.62-.63v-4a.63.63,0,0,1,1.25,0v4A.63.63,0,0,1,302.69,324.34Zm0-12a.63.63,0,0,1-.62-.63v-4a.63.63,0,0,1,1.25,0v4A.63.63,0,0,1,302.69,312.34Zm0-12a.63.63,0,0,1-.62-.63v-4a.63.63,0,0,1,1.25,0v4A.63.63,0,0,1,302.69,300.34Zm0-12a.63.63,0,0,1-.62-.63v-4a.63.63,0,0,1,1.25,0v4A.63.63,0,0,1,302.69,288.34Zm0-12a.63.63,0,0,1-.62-.63v-4a.63.63,0,0,1,1.25,0v4A.63.63,0,0,1,302.69,276.34Zm0-12a.63.63,0,0,1-.62-.63v-4a.63.63,0,0,1,1.25,0v4A.63.63,0,0,1,302.69,264.34Zm0-12a.63.63,0,0,1-.62-.63v-4a.63.63,0,0,1,1.25,0v4A.63.63,0,0,1,302.69,252.34Zm0-12a.63.63,0,0,1-.62-.63v-4a.63.63,0,0,1,1.25,0v4A.63.63,0,0,1,302.69,240.34Zm0-12a.63.63,0,0,1-.62-.63v-2.06a.63.63,0,0,1,1.25,0v2.06A.63.63,0,0,1,302.69,228.34Z" fill="#002138"></path><path d="M436.59,367.41h-4a.63.63,0,0,1,0-1.25h4a.63.63,0,1,1,0,1.25Zm-12,0h-4a.63.63,0,0,1,0-1.25h4a.63.63,0,1,1,0,1.25Zm-12,0h-4a.63.63,0,0,1,0-1.25h4a.63.63,0,1,1,0,1.25Zm-12,0h-4a.63.63,0,0,1,0-1.25h4a.63.63,0,1,1,0,1.25Zm-12,0h-4a.63.63,0,0,1,0-1.25h4a.63.63,0,1,1,0,1.25Zm-12,0h-4a.63.63,0,0,1,0-1.25h4a.63.63,0,1,1,0,1.25Zm-12,0h-4a.63.63,0,0,1,0-1.25h4a.63.63,0,1,1,0,1.25Zm-12,0h-4a.63.63,0,0,1,0-1.25h4a.63.63,0,1,1,0,1.25Zm-12,0h-4a.63.63,0,0,1,0-1.25h4a.63.63,0,1,1,0,1.25Zm-12,0h-4a.63.63,0,0,1,0-1.25h4a.63.63,0,1,1,0,1.25Zm-12,0h-4a.63.63,0,0,1,0-1.25h4a.63.63,0,1,1,0,1.25Zm-12,0h-1.9a.63.63,0,0,1,0-1.25h1.9a.63.63,0,1,1,0,1.25Z" fill="#002138"></path><g><g><path d="M465.07,218.82l-14.53-11.57H435.39a25.32,25.32,0,0,1-25.31-25.32h0a25.32,25.32,0,0,1,25.31-25.32H466.8a25.32,25.32,0,0,1,25.32,25.32h0a25.32,25.32,0,0,1-25.32,25.32h-.87l0,11.57a.6.6,0,0,1-.45.21h0A.55.55,0,0,1,465.07,218.82Z" fill="#2079c3"></path><path d="M465.52,219.66a1.21,1.21,0,0,1-.88-.38l-14.31-11.4H435.39a25.95,25.95,0,0,1,0-51.89H466.8a25.95,25.95,0,0,1,0,51.89h-.25l0,11.16-.14.18A1.2,1.2,0,0,1,465.52,219.66Zm-30.13-62.42a24.69,24.69,0,1,0,0,49.38h15.37l14.58,11.63,0-11.63h1.5a24.69,24.69,0,0,0,0-49.38Z" fill="#162020"></path></g><g><path d="M446,195a.63.63,0,0,1-.63-.62V169.8a.63.63,0,1,1,1.25,0v24.58A.62.62,0,0,1,446,195Z" fill="#002138"></path><path d="M455.19,195a.63.63,0,0,1-.63-.62V169.8a.63.63,0,1,1,1.25,0v24.58A.62.62,0,0,1,455.19,195Z" fill="#002138"></path><path d="M462.87,178.1H438.29a.63.63,0,1,1,0-1.25h24.58a.63.63,0,1,1,0,1.25Z" fill="#002138"></path><path d="M462.87,187.32H438.29a.63.63,0,1,1,0-1.25h24.58a.63.63,0,1,1,0,1.25Z" fill="#002138"></path></g></g><g><g><polygon points="491.8 336.76 396.83 336.76 396.83 397.13 461.13 397.13 475.02 410.91 474.94 396.94 485.81 397.13 491.8 397.17 491.8 336.76" fill="#a1d2f8"></polygon><path d="M475,411.53a.62.62,0,0,1-.44-.18l-13.7-13.59H396.83a.63.63,0,0,1-.62-.63V336.76a.63.63,0,0,1,.62-.63h95a.63.63,0,0,1,.62.63v60.41a.65.65,0,0,1-.18.44.62.62,0,0,1-.44.18h0l-6,0-10.24-.18.08,13.32a.61.61,0,0,1-.38.58A.53.53,0,0,1,475,411.53Zm-77.56-15h63.67a.59.59,0,0,1,.44.18l12.82,12.71-.07-12.46a.6.6,0,0,1,.18-.44.57.57,0,0,1,.45-.18l10.88.19,5.34,0V337.38H397.46Z" fill="#002138"></path></g><g><path d="M477.76,379.82h-42a.63.63,0,0,1,0-1.25h42a.63.63,0,1,1,0,1.25Z" fill="#002138"></path><path d="M427.25,379.82H410.34a.63.63,0,1,1,0-1.25h16.91a.63.63,0,1,1,0,1.25Z" fill="#002138"></path><path d="M477.76,367.55H410.34a.63.63,0,1,1,0-1.25h67.42a.63.63,0,1,1,0,1.25Z" fill="#002138"></path><path d="M477.76,355.28H461a.63.63,0,0,1,0-1.25h16.74a.63.63,0,1,1,0,1.25Z" fill="#002138"></path><path d="M453.42,355.28H410.34a.63.63,0,1,1,0-1.25h43.08a.63.63,0,1,1,0,1.25Z" fill="#002138"></path></g></g><g><path d="M289.61,368.31c0,30,28.06,42.39,28.06,42.39V399.93s4,.14,5.57.07c17.76-.78,32.26-13.92,32.26-31.7a32.19,32.19,0,0,0-32.19-32.19C305.52,336.11,289.61,348.49,289.61,368.31Z" fill="#2079c3"></path><path d="M318.29,411.66l-.87-.39c-.29-.12-28.43-12.91-28.43-43,0-21.32,17.68-32.83,34.32-32.83a32.86,32.86,0,0,1,32.82,32.82c0,17.61-14.13,31.5-32.86,32.33-1.2.05-3.77,0-5-.06Zm5-74.93c-16,0-33.07,11.07-33.07,31.58,0,26.23,22.09,39,26.8,41.39V399.28l.65,0s4,.15,5.52.08c18.06-.79,31.67-14.15,31.67-31.08A31.61,31.61,0,0,0,323.31,336.73Z" fill="#162020"></path></g><path d="M308.22,368.13a13.4,13.4,0,0,1,13.4-13.41c7.5,0,13.35,5.79,13.35,12.12,0,5.14-2.79,7.62-5.94,7.62a5,5,0,0,1-4.53-2.14,6.43,6.43,0,0,1-4.74,2.14,5.47,5.47,0,0,1-5.54-5.78c0-4.35,3.39-7.65,6.94-7.65a4.85,4.85,0,0,1,4.32,2.26l.37-1.84,3,.46-1.34,7.72a9.81,9.81,0,0,0-.15,1.31,2.12,2.12,0,0,0,2.38,2.18c2.18,0,4-2.09,4-6.28,0-5.63-5.17-11-12.12-11a12.22,12.22,0,1,0,.25,24.43,14.12,14.12,0,0,0,7.56-2.05l.55.92a15.09,15.09,0,0,1-8.11,2.29A13.34,13.34,0,0,1,308.22,368.13Zm15.09,2.48a5.26,5.26,0,0,0,1.5-3.65,3.14,3.14,0,0,0-3.22-3.3,4,4,0,0,0-2.78,1.22,5,5,0,0,0-1.44,3.61,3,3,0,0,0,3.21,3.31A3.82,3.82,0,0,0,323.31,370.61Z" fill="#162020"></path><g><g><path d="M366.84,331.29h0a.94.94,0,0,1-.73-.34l.07-18.58h-1.41a40.67,40.67,0,0,1-40.67-40.68h0A40.67,40.67,0,0,1,364.77,231h50.46a40.67,40.67,0,0,1,40.67,40.67h0a40.67,40.67,0,0,1-40.67,40.68H390.89L367.56,331A.94.94,0,0,1,366.84,331.29Z" fill="#fff"></path><path d="M366.84,331.92h0a1.57,1.57,0,0,1-1.21-.57l-.14-.17.06-18.19h-.78a41.3,41.3,0,1,1,0-82.6h50.46a41.3,41.3,0,0,1,0,82.6H391.11L368,331.42A1.55,1.55,0,0,1,366.84,331.92Zm-.1-1.27.1,0v0a.34.34,0,0,0,.25-.11l.08-.09,23.5-18.73h24.56a40,40,0,0,0,0-80.1H364.77a40.05,40.05,0,1,0,0,80.1h2Z" fill="#162020"></path></g><g><g><circle cx="416.32" cy="273.41" r="5.71" fill="#3896e3"></circle><path d="M416.32,279.75a6.34,6.34,0,1,1,6.33-6.34A6.35,6.35,0,0,1,416.32,279.75Zm0-11.42a5.09,5.09,0,1,0,5.08,5.08A5.09,5.09,0,0,0,416.32,268.33Z" fill="#002138"></path></g><g><circle cx="390.86" cy="273.41" r="5.71" fill="#3896e3"></circle><path d="M390.86,279.75a6.34,6.34,0,1,1,6.33-6.34A6.34,6.34,0,0,1,390.86,279.75Zm0-11.42a5.09,5.09,0,1,0,5.08,5.08A5.09,5.09,0,0,0,390.86,268.33Z" fill="#002138"></path></g><g><circle cx="365.39" cy="273.41" r="5.71" fill="#3896e3"></circle><path d="M365.39,279.75a6.34,6.34,0,1,1,6.34-6.34A6.34,6.34,0,0,1,365.39,279.75Zm0-11.42a5.09,5.09,0,1,0,5.09,5.08A5.09,5.09,0,0,0,365.39,268.33Z" fill="#002138"></path></g></g></g><g><g><polygon points="288.11 143.48 360.51 143.48 360.51 207.88 315.01 207.88 302.82 219.97 302.9 207.71 293.36 207.88 288.11 207.91 288.11 143.48" fill="#a1d2f8"></polygon><path d="M302.82,220.59a.69.69,0,0,1-.24-.05.64.64,0,0,1-.38-.58l.07-11.62-8.9.16-5.26,0h0a.59.59,0,0,1-.44-.18.63.63,0,0,1-.19-.44V143.48a.63.63,0,0,1,.63-.63h72.4a.63.63,0,0,1,.63.63v64.4a.63.63,0,0,1-.63.62H315.27l-12,11.91A.6.6,0,0,1,302.82,220.59Zm.08-13.51a.67.67,0,0,1,.44.18.63.63,0,0,1,.18.45l-.06,10.75,11.11-11a.67.67,0,0,1,.44-.18h44.88V144.1H288.73v63.18l4.62,0,9.54-.17Z" fill="#002138"></path></g><path d="M331,188.14H299.72a.63.63,0,0,1,0-1.25H331a.63.63,0,1,1,0,1.25Z" fill="#002138"></path><path d="M349.88,188.14H337.3a.63.63,0,1,1,0-1.25h12.58a.63.63,0,0,1,0,1.25Z" fill="#002138"></path><path d="M349.88,176.21H299.72a.63.63,0,0,1,0-1.25h50.16a.63.63,0,0,1,0,1.25Z" fill="#002138"></path><path d="M312.18,164.29H299.72a.63.63,0,0,1,0-1.25h12.46a.63.63,0,0,1,0,1.25Z" fill="#002138"></path><path d="M349.88,164.29H317.83a.63.63,0,0,1,0-1.25h32.05a.63.63,0,0,1,0,1.25Z" fill="#002138"></path></g></svg> 